<svg xmlns="http://www.w3.org/2000/svg" viewBox="0 0 1200 675" role="img"><title>Submissions approvals and payroll</title><defs><linearGradient id="bg" x1="0" x2="1" y1="0" y2="1"><stop stop-color="#07080b"/><stop offset="1" stop-color="#3a0d14"/></linearGradient><style>.t{font-family:Inter,Arial,sans-serif}.w{fill:#fff}.m{fill:#aeb8c8}.p{fill:#1b2230;stroke:#3c4553;stroke-width:1.5}.r{fill:#d71920}.g{fill:#22c55e}.y{fill:#f59e0b}.b{fill:#252c37}.xs{font-size:11px;font-weight:900;letter-spacing:.08em}.h{font-size:27px;font-weight:900}</style></defs><rect width="1200" height="675" fill="url(#bg)"/><text class="t w" x="44" y="58" font-size="32" font-weight="900">Arsenal Staff Commander</text><text class="t m xs" x="44" y="82">SUBMISSIONS APPROVALS PAYROLL</text><g transform="translate(44 120)"><rect class="p" width="1112" height="150" rx="16"/><text class="t w h" x="26" y="44">Work Submissions</text><g transform="translate(26 68)"><rect class="b" width="1060" height="34" rx="8"/><text class="t m xs" x="15" y="22">TEAM MEMBER</text><text class="t m xs" x="205" y="22">JOB TYPE</text><text class="t m xs" x="390" y="22">STATUS</text><text class="t m xs" x="560" y="22">AMOUNT</text><text class="t m xs" x="715" y="22">NOTES</text><text class="t w" x="15" y="68" font-size="16" font-weight="800">Taylor Brooks</text><text class="t w" x="205" y="68" font-size="16" font-weight="800">Commercial Service</text><rect class="y" x="390" y="50" width="78" height="24" rx="12"/><text class="t" x="405" y="67" fill="#111827" font-size="11" font-weight="900">PENDING</text><text class="t w" x="560" y="68" font-size="16" font-weight="800">$315</text><text class="t m" x="715" y="68" font-size="15">North site appointment</text></g></g><g transform="translate(44 304)"><rect class="p" width="540" height="300" rx="16"/><text class="t w h" x="26" y="44">Approvals</text><rect class="r" x="260" y="22" width="140" height="38" rx="9"/><text class="t w" x="281" y="47" font-size="14" font-weight="900">Approve selected</text><g transform="translate(26 84)"><rect class="b" width="488" height="42" rx="8"/><text class="t w" x="18" y="27" font-size="15" font-weight="800">Taylor Brooks</text><text class="t m" x="190" y="27" font-size="14">Commercial Service</text><rect class="y" x="350" y="10" width="78" height="22" rx="11"/><text class="t" x="364" y="26" fill="#111827" font-size="10" font-weight="900">PENDING</text><rect class="b" y="58" width="488" height="42" rx="8"/><text class="t w" x="18" y="85" font-size="15" font-weight="800">Casey Bennett</text><rect class="g" x="350" y="68" width="82" height="22" rx="11"/><text class="t" x="365" y="84" fill="#06250f" font-size="10" font-weight="900">APPROVED</text><rect class="b" y="116" width="488" height="42" rx="8"/><text class="t w" x="18" y="143" font-size="15" font-weight="800">Morgan Davis</text><rect class="r" x="350" y="126" width="96" height="22" rx="11"/><text class="t w" x="363" y="142" font-size="10" font-weight="900">NEEDS REVIEW</text></g></g><g transform="translate(616 304)"><rect class="p" width="540" height="300" rx="16"/><text class="t w h" x="26" y="44">Team Payroll</text><g transform="translate(26 74)"><rect fill="#fff" width="130" height="70" rx="12"/><text class="t m xs" x="14" y="23">APPROVED</text><text class="t" x="14" y="55" fill="#111827" font-size="30" font-weight="900">$650</text><rect fill="#fff" x="148" width="130" height="70" rx="12"/><text class="t m xs" x="162" y="23">PENDING</text><text class="t" x="162" y="55" fill="#111827" font-size="30" font-weight="900">$740</text><rect fill="#fff" x="296" width="130" height="70" rx="12"/><text class="t m xs" x="310" y="23">WARNINGS</text><text class="t" x="310" y="55" fill="#111827" font-size="30" font-weight="900">1</text></g><rect class="b" x="26" y="178" width="488" height="42" rx="8"/><text class="t w" x="44" y="205" font-size="15" font-weight="800">Morgan Davis</text><text class="t m" x="230" y="205" font-size="14">Missing rate warning</text><rect class="r" x="410" y="188" width="70" height="22" rx="11"/><text class="t w" x="424" y="204" font-size="10" font-weight="900">REVIEW</text></g></svg>